<svg xmlns="http://www.w3.org/2000/svg" viewBox="0 0 64 64">
  <!-- Dark rounded background -->
  <rect width="64" height="64" rx="14" fill="#1C1C1E"/>

  <!-- P -->
  <path d="M7 16h10.5c4.7 0 7.5 2.8 7.5 6.8 0 4-2.8 6.7-7.5 6.7H12v8.5H7V16zm5 9.8h5c1.8 0 2.8-.9 2.8-3s-1-3-2.8-3H12v6z" fill="#FF6900"/>

  <!-- i stem -->
  <rect x="28" y="22" width="5" height="16" rx="2.5" fill="#FF6900"/>

  <!-- i dot: pie-chart icon replacing normal dot -->
  <g transform="translate(30.5,16)">
    <!-- Pie slice (arrow/wedge) -->
    <path d="M0,0 L0,-4.5 A4.5,4.5 0 0,1 3.18,-3.18 Z" fill="#FF6900"/>
    <!-- Remaining arc -->
    <path d="M0,0 L3.18,-3.18 A4.5,4.5 0 1,1 0,-4.5 Z" fill="#FF6900" opacity="0.55"/>
  </g>

  <!-- X left stroke -->
  <path d="M41 16l7.5 11.5L41 38h6l4.5-7 4.5 7h6L55 27.5 62.5 16h-6L52 23.5 47.5 16H41z" fill="#FF6900"/>
</svg>
